<svg width="147" height="147" viewBox="0 0 147 147" fill="none" xmlns="http://www.w3.org/2000/svg">
<path d="M147 73.5C147 114.093 114.093 147 73.5 147C32.9071 147 0 114.093 0 73.5C0 32.9071 32.9071 0 73.5 0C114.093 0 147 32.9071 147 73.5Z" fill="#F2F2F2"/>
<path d="M95.8187 49.5789C95.8187 61.4967 86.1575 71.1579 74.2398 71.1579C62.322 71.1579 52.6608 61.4967 52.6608 49.5789C52.6608 37.6612 62.322 28 74.2398 28C86.1575 28 95.8187 37.6612 95.8187 49.5789Z" fill="#CA9191"/>
<path d="M74 77.3918C96.6437 77.3918 115 95.7481 115 118.392H33C33 95.7481 51.3563 77.3918 74 77.3918Z" fill="#CA9191"/>
<path d="M73.5 0.5C113.817 0.5 146.5 33.1832 146.5 73.5C146.5 113.817 113.817 146.5 73.5 146.5C33.1832 146.5 0.5 113.817 0.5 73.5C0.5 33.1832 33.1832 0.5 73.5 0.5ZM74 76.8916C51.0803 76.8916 32.5001 95.4719 32.5 118.392V118.892H115.5V118.392C115.5 95.4719 96.9197 76.8916 74 76.8916ZM74 77.8916C96.2005 77.8916 114.225 95.7546 114.493 117.892H33.5068C33.7748 95.7546 51.7995 77.8916 74 77.8916ZM95.3184 49.5791C95.3183 61.2205 85.8815 70.6579 74.2402 70.6582C62.5987 70.6582 53.1612 61.2206 53.1611 49.5791C53.1611 37.9375 62.5987 28.5 74.2402 28.5C85.8816 28.5003 95.3184 37.9377 95.3184 49.5791ZM96.3184 49.5791C96.3184 37.3854 86.4339 27.5003 74.2402 27.5C62.0464 27.5 52.1611 37.3852 52.1611 49.5791C52.1612 61.7729 62.0464 71.6582 74.2402 71.6582C86.4338 71.6579 96.3183 61.7727 96.3184 49.5791Z" stroke="white"/>
</svg>
